<svg xmlns="http://www.w3.org/2000/svg" version="1.1" xmlns:xlink="http://www.w3.org/1999/xlink" width="512" height="512" x="0" y="0" viewBox="0 0 64 64" style="enable-background:new 0 0 512 512" xml:space="preserve" class=""><g><path d="M50 2H16a6.007 6.007 0 0 0-6 6v42a6.007 6.007 0 0 0 6 6h3v5a1 1 0 0 0 1.707.707L24 58.414l3.293 3.293A1 1 0 0 0 29 61v-5h21a4.004 4.004 0 0 0 4-4V6a4.004 4.004 0 0 0-4-4ZM16 4h34a2.002 2.002 0 0 1 2 2v38H16a5.969 5.969 0 0 0-4 1.54V8a4.004 4.004 0 0 1 4-4Zm8.707 52.293a1 1 0 0 0-1.414 0L21 58.586V51h6v7.586ZM50 54H29v-3h19a1 1 0 0 0 0-2H17a1 1 0 0 0 0 2h2v3h-3a4 4 0 0 1 0-8h36v6a2.002 2.002 0 0 1-2 2ZM21 28.411V36a3.003 3.003 0 0 0 3 3h16a3.003 3.003 0 0 0 3-3v-7.589a7.99 7.99 0 0 0-4.034-15.332 7.987 7.987 0 0 0-13.932 0A7.99 7.99 0 0 0 21 28.411ZM40 37H24a1.001 1.001 0 0 1-1-1v-1h18v1a1.001 1.001 0 0 1-1 1ZM24.26 15.016A7.962 7.962 0 0 0 24 17a1 1 0 0 0 2 0 6 6 0 0 1 12 0 1 1 0 0 0 2 0 7.961 7.961 0 0 0-.26-1.984 5.995 5.995 0 1 1-1.453 11.731 1 1 0 0 0-.574 1.916 7.706 7.706 0 0 0 3.287.268V33H23v-4.07a7.706 7.706 0 0 0 3.287-.267 1 1 0 0 0-.574-1.916 5.994 5.994 0 1 1-1.454-11.73Z" data-name="35-Recipe Book" fill="#000000" opacity="1" data-original="#000000" class=""></path></g></svg>